<svg xmlns="http://www.w3.org/2000/svg" viewBox="0 0 1600 1000" width="1600" height="1000"><defs><clipPath id="clip4"><rect width="1600" height="1000" rx="14"/></clipPath></defs><g clip-path="url(#clip4)"><rect x="0" y="0" width="1600" height="1000" rx="0" fill="#121212" /><circle cx="31.5" cy="21" r="6.7" fill="#333" /><circle cx="54.6" cy="21" r="6.7" fill="#333" /><circle cx="77.7" cy="21" r="6.7" fill="#333" /><rect x="576" y="9.2" width="448" height="23.5" rx="11.8" fill="#1f1f1f" /><rect x="590.7" y="16.8" width="8.4" height="8.4" rx="2" fill="#21ffc0" /><rect x="607.5" y="18.5" width="128" height="5" rx="3" fill="#3a3a3a" /><svg x="0" y="42" width="1600" height="958" viewBox="0 0 1600 958"><rect x="0" y="0" width="1600" height="958" rx="0" fill="#101010" /><circle cx="56" cy="44" r="13" fill="#21ffc0" /><rect x="78" y="38" width="90" height="12" rx="6" fill="#d6d6d6" /><rect x="576" y="39" width="74" height="10" rx="5" fill="#474747" /><rect x="686" y="39" width="74" height="10" rx="5" fill="#474747" /><rect x="796" y="39" width="74" height="10" rx="5" fill="#474747" /><rect x="906" y="39" width="74" height="10" rx="5" fill="#474747" /><rect x="1424" y="26" width="130" height="38" rx="19" fill="none" stroke="#474747" stroke-width="1.5"/><rect x="1454" y="41" width="70" height="8" rx="4" fill="#7a7a7a" /><rect x="96" y="199.1" width="150" height="28" rx="14" fill="rgba(33,255,192,0.14)" /><rect x="112" y="209.1" width="118" height="8" rx="4" fill="#21ffc0" /><rect x="96" y="249.1" width="576" height="50" rx="10" fill="#d6d6d6" /><rect x="96" y="319.1" width="672" height="50" rx="10" fill="#d6d6d6" /><rect x="96" y="389.1" width="448" height="50" rx="10" fill="#d6d6d6" /><rect x="96" y="489.1" width="544" height="14" rx="7" fill="#474747" /><rect x="96" y="515.1" width="448" height="14" rx="7" fill="#474747" /><rect x="96" y="569.1" width="190" height="56" rx="28" fill="#21ffc0" /><rect x="136" y="593.1" width="110" height="9" rx="4" fill="#0a3a2c" /><rect x="306" y="569.1" width="170" height="56" rx="28" fill="none" stroke="#474747" stroke-width="1.5"/><defs><radialGradient id="s3" cx="0.36" cy="0.32" r="0.8"><stop offset="0" stop-color="#bafbe8"/><stop offset="0.35" stop-color="#21ffc0"/><stop offset="1" stop-color="#05382a"/></radialGradient><radialGradient id="l3"><stop offset="0" stop-color="#21ffc0" stop-opacity="0.22"/><stop offset="1" stop-color="#21ffc0" stop-opacity="0"/></radialGradient></defs><circle cx="1152" cy="440.7" r="482.8" fill="url(#l3)" /><ellipse cx="1152" cy="440.7" rx="367.9" ry="96.6" fill="none" stroke="#2f2f2f" stroke-width="1.5" transform="rotate(-14 1152 440.7)"/><ellipse cx="1152" cy="440.7" rx="455.2" ry="119.6" fill="none" stroke="#2f2f2f" stroke-width="1.5" transform="rotate(-8 1152 440.7)"/><ellipse cx="1152" cy="440.7" rx="542.6" ry="142.6" fill="none" stroke="#2f2f2f" stroke-width="1.5" transform="rotate(-2 1152 440.7)"/><circle cx="1152" cy="440.7" r="229.9" fill="url(#s3)" /><circle cx="1508.4" cy="360.2" r="20.7" fill="#d6d6d6" /><circle cx="761.1" cy="532.6" r="13.8" fill="#7a7a7a" /><rect x="96" y="888" width="174.7" height="16" rx="8" fill="#262626" /><rect x="330.7" y="888" width="174.7" height="16" rx="8" fill="#262626" /><rect x="565.3" y="888" width="174.7" height="16" rx="8" fill="#262626" /><rect x="800" y="888" width="174.7" height="16" rx="8" fill="#262626" /><rect x="1034.7" y="888" width="174.7" height="16" rx="8" fill="#262626" /><rect x="1269.3" y="888" width="174.7" height="16" rx="8" fill="#262626" /></svg><text x="1584" y="986" font-family="ui-monospace, 'SFMono-Regular', Menlo, Consolas, monospace" font-size="15" fill="#6a6a6a" text-anchor="end" >1600 × 1000</text></g><rect x="0.5" y="0.5" width="1599" height="999" rx="14" fill="none" stroke="rgba(255,255,255,0.08)"/></svg>